<svg width="16" height="17" viewBox="0 0 16 17" fill="none" xmlns="http://www.w3.org/2000/svg">
<path d="M15 6.37524C15 10.7502 8.51312 14.2915 8.23687 14.4377C8.16406 14.4769 8.08268 14.4974 8 14.4974C7.91732 14.4974 7.83594 14.4769 7.76312 14.4377C7.48688 14.2915 1 10.7502 1 6.37524C1.00116 5.34789 1.40979 4.36294 2.13624 3.63648C2.86269 2.91003 3.84764 2.5014 4.875 2.50024C6.16563 2.50024 7.29562 3.05524 8 3.99337C8.70438 3.05524 9.83438 2.50024 11.125 2.50024C12.1524 2.5014 13.1373 2.91003 13.8638 3.63648C14.5902 4.36294 14.9988 5.34789 15 6.37524Z" fill="#333333"/>
</svg>
